<svg width="97" height="86" viewBox="0 0 97 86" fill="none" xmlns="http://www.w3.org/2000/svg">
<path d="M49.1062 63.36L49.4644 63.7089L49.7992 63.3651L49.4695 63.0165L49.1062 63.36ZM41.6182 55.44L41.9815 55.0965L41.6247 54.719L41.2611 55.09L41.6182 55.44ZM41.6182 38.448L41.2318 38.7654L41.6129 39.2293L42.0003 38.7705L41.6182 38.448ZM49.0342 29.664L49.4163 29.9865L49.7086 29.6403L49.3927 29.3155L49.0342 29.664ZM28.7302 20.668C13.1447 20.668 1.30222 31.81 1.30222 46.656H2.30222C2.30222 32.414 13.6437 21.668 28.7302 21.668V20.668ZM1.30222 46.656C1.30222 61.7012 12.8392 73.076 28.2982 73.076V72.076C13.3733 72.076 2.30222 61.1308 2.30222 46.656H1.30222ZM28.2982 73.076C35.8643 73.076 43.9814 69.3381 49.4644 63.7089L48.748 63.0111C43.431 68.4699 35.5642 72.076 28.2982 72.076V73.076ZM49.4695 63.0165L41.9815 55.0965L41.2549 55.7835L48.7429 63.7035L49.4695 63.0165ZM41.2611 55.09C37.8063 58.6153 33.0328 60.844 28.9462 60.844V61.844C33.3557 61.844 38.3741 59.4647 41.9753 55.79L41.2611 55.09ZM28.9462 60.844C21.2563 60.844 15.4062 54.6865 15.4062 46.512H14.4062C14.4062 55.1855 20.6522 61.844 28.9462 61.844V60.844ZM15.4062 46.512C15.4062 38.4881 21.25 32.396 28.9462 32.396V31.396C20.6584 31.396 14.4062 37.9759 14.4062 46.512H15.4062ZM28.9462 32.396C33.2357 32.396 37.9978 34.8282 41.2318 38.7654L42.0046 38.1306C38.6146 34.0037 33.5848 31.396 28.9462 31.396V32.396ZM42.0003 38.7705L49.4163 29.9865L48.6522 29.3414L41.2362 38.1254L42.0003 38.7705ZM49.3927 29.3155C44.2577 24.0338 36.352 20.668 28.7302 20.668V21.668C36.0844 21.668 43.7307 24.9262 48.6757 30.0125L49.3927 29.3155Z" fill="#4FCF83"/>
<path d="M65.7697 21.1681C81.1057 21.1681 92.6977 32.1121 92.6977 46.6561C92.6977 61.4161 81.3937 72.576 66.2017 72.576C58.7857 72.576 50.7937 68.904 45.3937 63.36L52.8817 55.4401C56.4097 59.04 61.3057 61.344 65.5537 61.344C73.5457 61.344 79.5937 54.936 79.5937 46.5121C79.5937 38.2321 73.5457 31.8961 65.5537 31.8961C61.0897 31.8961 56.1937 34.4161 52.8817 38.4481L45.4657 29.6641C50.5057 24.4801 58.2817 21.1681 65.7697 21.1681Z" fill="#4FCF83"/>
<path d="M45.3937 63.36L45.0355 63.7089L44.7007 63.3652L45.0303 63.0165L45.3937 63.36ZM52.8817 55.4401L52.5183 55.0965L52.8752 54.7191L53.2388 55.0901L52.8817 55.4401ZM52.8817 38.4481L53.268 38.7654L52.8869 39.2294L52.4996 38.7706L52.8817 38.4481ZM45.4657 29.6641L45.0836 29.9866L44.7913 29.6404L45.1072 29.3155L45.4657 29.6641ZM65.7697 20.6681C81.3552 20.6681 93.1977 31.81 93.1977 46.6561H92.1977C92.1977 32.4141 80.8561 21.6681 65.7697 21.6681V20.6681ZM93.1977 46.6561C93.1977 61.7012 81.6607 73.076 66.2017 73.076V72.076C81.1266 72.076 92.1977 61.1309 92.1977 46.6561H93.1977ZM66.2017 73.076C58.6356 73.076 50.5185 69.3381 45.0355 63.7089L45.7518 63.0112C51.0688 68.47 58.9357 72.076 66.2017 72.076V73.076ZM45.0303 63.0165L52.5183 55.0965L53.245 55.7836L45.757 63.7036L45.0303 63.0165ZM53.2388 55.0901C56.6936 58.6154 61.4671 60.8441 65.5537 60.8441V61.844C61.1442 61.844 56.1258 59.4647 52.5246 55.79L53.2388 55.0901ZM65.5537 60.8441C73.2436 60.8441 79.0937 54.6865 79.0937 46.5121H80.0937C80.0937 55.1856 73.8477 61.844 65.5537 61.844V60.8441ZM79.0937 46.5121C79.0937 38.4881 73.2499 32.3961 65.5537 32.3961V31.3961C73.8414 31.3961 80.0937 37.976 80.0937 46.5121H79.0937ZM65.5537 32.3961C61.2642 32.3961 56.5021 34.8283 53.268 38.7654L52.4953 38.1307C55.8852 34.0038 60.9151 31.3961 65.5537 31.3961V32.3961ZM52.4996 38.7706L45.0836 29.9866L45.8477 29.3415L53.2637 38.1255L52.4996 38.7706ZM45.1072 29.3155C50.2421 24.0338 58.1478 20.6681 65.7697 20.6681V21.6681C58.4155 21.6681 50.7692 24.9263 45.8242 30.0126L45.1072 29.3155Z" fill="#4FCF83"/>
<path d="M48.3251 49H49.1161L49.1091 46.557C49.1021 45.738 48.5631 45.248 47.6041 45.248C46.8971 45.248 46.5191 45.409 46.0011 45.717L46.3301 46.277C46.7011 46.025 47.0721 45.899 47.4291 45.899C48.0171 45.899 48.3181 46.179 48.3181 46.648V46.76H47.1911C46.2951 46.767 45.7841 47.201 45.7841 47.88C45.7841 48.538 46.2881 49.035 47.0931 49.035C47.6321 49.035 48.0591 48.874 48.3251 48.545V49ZM47.2611 48.398C46.8131 48.398 46.5401 48.181 46.5401 47.845C46.5401 47.488 46.7851 47.348 47.3101 47.348H48.3181V47.691C48.2761 48.097 47.8351 48.398 47.2611 48.398ZM53.5536 45.276H52.7556V45.878C52.4966 45.472 52.0696 45.241 51.4956 45.248C50.5086 45.255 49.8436 45.969 49.8436 47.019C49.8436 48.09 50.5156 48.818 51.5236 48.818C52.0836 48.818 52.5036 48.594 52.7556 48.188V48.657C52.7556 49.301 52.2936 49.714 51.5866 49.714C51.1316 49.714 50.7676 49.567 50.4176 49.308L50.0746 49.889C50.5296 50.197 51.0406 50.379 51.6216 50.379C52.7906 50.379 53.5536 49.707 53.5536 48.636V45.276ZM51.6846 48.188C51.0406 48.188 50.6066 47.712 50.5996 47.04C50.6066 46.375 51.0476 45.899 51.6846 45.899C52.3146 45.899 52.7556 46.368 52.7556 47.04C52.7556 47.712 52.3146 48.188 51.6846 48.188ZM56.2042 45.248C55.0982 45.255 54.3212 46.018 54.3212 47.145C54.3212 48.265 55.0772 49.028 56.2252 49.028C56.8692 49.028 57.4012 48.797 57.7652 48.398L57.3382 47.943C57.0652 48.223 56.6942 48.377 56.2882 48.377C55.7002 48.377 55.2592 48.02 55.1332 47.446H57.9472C58.0452 46.102 57.5132 45.248 56.2042 45.248ZM55.1192 46.858C55.2102 46.263 55.6232 45.892 56.2112 45.892C56.8202 45.892 57.2192 46.256 57.2472 46.858H55.1192ZM60.9634 45.248C60.3334 45.248 59.8574 45.472 59.5914 45.99V45.276H58.7864V49H59.5914V47.019C59.6474 46.438 60.0324 46.011 60.6484 46.004C61.2084 46.004 61.5444 46.347 61.5444 46.907V49H62.3494V46.683C62.3494 45.794 61.8314 45.248 60.9634 45.248ZM64.954 45.248C63.848 45.248 63.078 46.018 63.078 47.145C63.078 48.265 63.848 49.028 64.954 49.028C65.661 49.028 66.2 48.776 66.536 48.335L66.088 47.887C65.836 48.181 65.458 48.335 64.989 48.335C64.345 48.335 63.883 47.852 63.883 47.145C63.883 46.438 64.345 45.955 64.989 45.955C65.437 45.948 65.794 46.109 66.053 46.375L66.494 45.857C66.151 45.465 65.626 45.248 64.954 45.248ZM70.5362 45.276H69.7312L68.6952 48.097L67.5822 45.276H66.7492L68.2892 48.944L68.1632 49.224C68.0372 49.504 67.8412 49.637 67.5962 49.637C67.4282 49.637 67.2882 49.581 67.1132 49.455L66.7702 50.078C67.0292 50.295 67.2952 50.393 67.6312 50.393C68.1912 50.393 68.6112 50.099 68.8422 49.511L70.5362 45.276Z" fill="#4FCF83"/>
<path d="M21.372 45.248C20.266 45.248 19.496 46.018 19.496 47.145C19.496 48.265 20.266 49.028 21.372 49.028C22.079 49.028 22.618 48.776 22.954 48.335L22.506 47.887C22.254 48.181 21.876 48.335 21.407 48.335C20.763 48.335 20.301 47.852 20.301 47.145C20.301 46.438 20.763 45.955 21.407 45.955C21.855 45.948 22.212 46.109 22.471 46.375L22.912 45.857C22.569 45.465 22.044 45.248 21.372 45.248ZM25.2428 45.248C24.0878 45.248 23.2968 46.011 23.2968 47.138C23.2968 48.258 24.0878 49.028 25.2428 49.028C26.3908 49.028 27.1818 48.258 27.1818 47.138C27.1818 46.011 26.3908 45.248 25.2428 45.248ZM25.2428 45.941C25.9078 45.941 26.3768 46.431 26.3768 47.145C26.3768 47.866 25.9078 48.356 25.2428 48.356C24.5708 48.356 24.1018 47.866 24.1018 47.145C24.1018 46.431 24.5708 45.941 25.2428 45.941ZM31.4028 45.276H30.5978V47.11C30.5978 47.761 30.2198 48.258 29.5758 48.272C29.0368 48.272 28.7078 47.929 28.7078 47.369V45.276H27.9028V47.593C27.9028 48.482 28.4138 49.028 29.2678 49.028C29.8768 49.021 30.3458 48.79 30.5978 48.272V49H31.4028V45.276ZM34.121 45.248C33.015 45.248 32.245 46.018 32.245 47.145C32.245 48.265 33.015 49.028 34.121 49.028C34.828 49.028 35.367 48.776 35.703 48.335L35.255 47.887C35.003 48.181 34.625 48.335 34.156 48.335C33.512 48.335 33.05 47.852 33.05 47.145C33.05 46.438 33.512 45.955 34.156 45.955C34.604 45.948 34.961 46.109 35.22 46.375L35.661 45.857C35.318 45.465 34.793 45.248 34.121 45.248ZM37.9918 45.248C36.8368 45.248 36.0458 46.011 36.0458 47.138C36.0458 48.258 36.8368 49.028 37.9918 49.028C39.1398 49.028 39.9308 48.258 39.9308 47.138C39.9308 46.011 39.1398 45.248 37.9918 45.248ZM37.9918 45.941C38.6568 45.941 39.1258 46.431 39.1258 47.145C39.1258 47.866 38.6568 48.356 37.9918 48.356C37.3198 48.356 36.8508 47.866 36.8508 47.145C36.8508 46.431 37.3198 45.941 37.9918 45.941ZM44.1518 45.276H43.3468V47.11C43.3468 47.761 42.9688 48.258 42.3248 48.272C41.7858 48.272 41.4568 47.929 41.4568 47.369V45.276H40.6518V47.593C40.6518 48.482 41.1628 49.028 42.0168 49.028C42.6258 49.021 43.0948 48.79 43.3468 48.272V49H44.1518V45.276Z" fill="black"/>
</svg>
